<svg width="20" height="20" viewBox="0 0 20 20" fill="none" xmlns="http://www.w3.org/2000/svg">
<g clip-path="url(#clip0_250_166)">
<path d="M0.269455 13.7617H10.11V15.5698H16.2615V13.7657H18.7054C18.8637 15.916 18.8761 17.8305 16.6707 19.2899C16.6437 19.3076 16.6221 19.3319 16.5623 19.3851C16.8335 19.6104 17.1009 19.833 17.3655 20.0531C17.0082 20.3946 16.7212 20.6691 16.3922 20.9844C16.1019 20.6849 15.7879 20.3374 15.4458 20.0209C15.3453 19.9276 15.1673 19.8895 15.0215 19.8803C14.7831 19.8659 14.5414 19.9046 14.301 19.9053C11.1057 19.9072 7.91048 19.9066 4.71457 19.9066C4.56154 19.9066 4.398 19.9361 4.25679 19.8935C3.83054 19.7654 3.55994 19.9631 3.30642 20.2685C3.09034 20.5286 2.84405 20.763 2.61877 21.0008C2.31468 20.6809 2.03949 20.3919 1.73474 20.0708C1.939 19.8902 2.19843 19.6603 2.49004 19.4015C2.28906 19.2577 2.13866 19.1579 1.99614 19.0475C0.928209 18.2246 0.350896 17.133 0.275366 15.7925C0.23793 15.1285 0.268798 14.4605 0.268798 13.7617H0.269455Z" fill="#2E2E2E"/>
<path d="M0.275543 8.78721C0.270288 8.66834 0.261093 8.56128 0.261093 8.45423C0.260437 6.71375 0.258466 4.97393 0.261093 3.23345C0.26372 1.3209 1.59108 -0.0136865 3.50101 0.000105915C4.14203 0.0047034 4.80275 -0.00843228 5.41882 0.136717C6.5117 0.394833 7.20001 1.15276 7.53235 2.22069C7.59671 2.42824 7.68012 2.52872 7.90803 2.59046C9.19401 2.93921 10.0964 4.14113 10.1128 5.48228C10.1155 5.69836 10.1128 5.91444 10.1128 6.14891H4.02578C3.73548 4.61401 4.56959 3.02985 6.31335 2.53529C6.15573 1.85027 5.48121 1.2723 4.7732 1.24734C4.23792 1.22829 3.70067 1.22632 3.16539 1.24734C2.24261 1.28346 1.50044 2.13071 1.4965 3.14676C1.48994 4.89774 1.49453 6.64938 1.49453 8.40037C1.49453 8.5199 1.49453 8.63944 1.49453 8.78656H0.274229L0.275543 8.78721Z" fill="#2E2E2E"/>
<path d="M10.0931 12.5328C9.96436 12.5328 9.86781 12.5328 9.77126 12.5328C6.64366 12.5328 3.5154 12.5335 0.387794 12.5321C-0.285409 12.5321 -0.769459 12.2136 -0.939566 11.6698C-1.19571 10.8514 -0.615771 10.0633 0.268259 10.0515C1.20877 10.039 2.14929 10.0482 3.0898 10.0482C5.29922 10.0482 7.50799 10.0482 9.71741 10.0482C9.83563 10.0482 9.95385 10.0482 10.0931 10.0482V12.5321V12.5328Z" fill="#2E2E2E"/>
<path d="M15.0237 14.3712H11.3634C11.3575 14.2556 11.3477 14.1506 11.3477 14.0455C11.3464 12.7772 11.3464 11.5083 11.3477 10.2401C11.3483 9.32254 11.8494 8.81813 12.763 8.81419C13.1019 8.81288 13.4408 8.80565 13.7797 8.81616C14.5409 8.84046 15.0381 9.35209 15.0401 10.1153C15.044 11.4387 15.0414 12.7615 15.0401 14.0849C15.0401 14.1709 15.0309 14.2563 15.0237 14.3712Z" fill="#2E2E2E"/>
<path d="M16.2832 12.5203V10.0475C16.8782 10.0475 17.4648 10.0455 18.0506 10.0481C18.356 10.0495 18.668 10.0245 18.9668 10.0738C19.619 10.1815 20.0433 10.7154 20.0164 11.3387C19.9901 11.9502 19.5389 12.475 18.8985 12.5085C18.0394 12.5538 17.1764 12.5196 16.2839 12.5196L16.2832 12.5203Z" fill="#2E2E2E"/>
</g>
<defs>
<clipPath id="clip0_250_166">
<rect width="21.0171" height="21" fill="white" transform="translate(-1)"/>
</clipPath>
</defs>
</svg>
