<svg width="20" height="20" viewBox="0 0 20 20" fill="none" xmlns="http://www.w3.org/2000/svg">
<g clip-path="url(#clip0_250_159)">
<g clip-path="url(#clip1_250_159)">
<path d="M10.0119 17.459C7.01369 17.459 4.01627 17.459 1.01806 17.459C0.714934 17.459 0.574786 17.5977 0.574786 17.8969C0.574786 17.9745 0.578723 18.052 0.573999 18.1287C0.5677 18.2217 0.558252 18.3148 0.54093 18.4055C0.476368 18.7365 0.159068 19.0016 -0.220432 18.9977C-0.601507 18.9938 -0.917233 18.7109 -0.974709 18.3473C-0.988094 18.2621 -0.99518 18.1745 -0.99518 18.0884C-0.995967 16.3272 -1.00778 14.5652 -0.991243 12.8039C-0.981795 11.7776 -0.602295 10.8845 0.125212 10.1411C0.566913 9.68996 1.09207 9.36903 1.69282 9.16438C2.16522 9.00392 2.65338 8.95508 3.15098 8.95508C7.76246 8.95663 12.3739 8.95275 16.9854 8.95818C18.3365 8.95973 19.4309 9.49616 20.2419 10.5628C20.6403 11.0876 20.8781 11.6838 20.9592 12.3349C20.9867 12.5543 20.9985 12.7776 20.9993 12.9993C21.0025 14.7093 21.0017 16.4194 21.0009 18.1295C21.0009 18.3969 20.934 18.6403 20.7104 18.8171C20.4741 19.0039 20.2104 19.0528 19.9293 18.9388C19.66 18.8287 19.49 18.6264 19.4514 18.3372C19.4317 18.1915 19.4341 18.0419 19.4301 17.8946C19.4238 17.6566 19.3238 17.5132 19.1239 17.469C19.0798 17.459 19.0333 17.4597 18.9876 17.4597C15.9965 17.4597 13.0054 17.4597 10.0135 17.4597L10.0119 17.459Z" fill="#2E2E2E"/>
<path d="M9.90246 2C11.8472 2 13.7912 2 15.7351 2C16.3862 2 16.9949 2.14341 17.52 2.53953C18.1956 3.04884 18.59 3.71938 18.6231 4.56124C18.6514 5.27519 18.6388 5.9907 18.642 6.70543C18.6444 7.16589 18.642 7.62636 18.642 8.08682C18.642 8.12791 18.6396 8.17132 18.6286 8.21085C18.5948 8.33566 18.5263 8.38527 18.3971 8.36124C18.2562 8.33488 18.12 8.27829 17.979 8.26279C17.6476 8.22713 17.3153 8.20233 16.9823 8.18527C16.7602 8.17364 16.6917 8.13411 16.6602 7.91938C16.5595 7.23876 15.9194 6.62636 15.1005 6.63566C14.1872 6.64574 13.2739 6.63798 12.3613 6.63798C11.6819 6.63798 11.1016 7.03643 10.8709 7.66434C10.8378 7.75426 10.8252 7.85194 10.8079 7.94651C10.7756 8.11628 10.7119 8.17984 10.5402 8.18217C10.1804 8.18605 9.81979 8.18605 9.45997 8.18217C9.29463 8.18062 9.22928 8.11628 9.19936 7.92791C9.15763 7.66357 9.0537 7.42791 8.88364 7.22093C8.57579 6.84574 8.17739 6.64186 7.68609 6.63953C6.74363 6.63488 5.80118 6.63721 4.85794 6.63876C4.06587 6.63953 3.44623 7.24884 3.34545 7.91783C3.31317 8.13411 3.24782 8.17209 3.02579 8.18605C2.6581 8.21008 2.29041 8.24419 1.92351 8.28295C1.81092 8.29457 1.70305 8.34264 1.59125 8.36124C1.47078 8.38062 1.41488 8.34031 1.38103 8.22403C1.36764 8.17829 1.36134 8.12946 1.36134 8.0814C1.36055 6.97674 1.3456 5.87209 1.36449 4.76744C1.38418 3.61163 1.92666 2.76202 2.988 2.24806C3.40844 2.04574 3.86431 2 4.3257 2C6.18462 2 8.04354 2 9.90246 2Z" fill="#2E2E2E"/>
</g>
</g>
<defs>
<clipPath id="clip0_250_159">
<rect width="20" height="20" fill="white"/>
</clipPath>
<clipPath id="clip1_250_159">
<rect width="22" height="17" fill="white" transform="translate(-1 2)"/>
</clipPath>
</defs>
</svg>
