<svg width="24" height="24" viewBox="0 0 24 24" fill="none" xmlns="http://www.w3.org/2000/svg">
<path d="M3.45432 8.54566C4.8602 9.95155 7.1396 9.95155 8.54549 8.54566C8.71825 8.3729 8.86978 8.18695 9.00008 7.99105C9.64505 8.96093 10.7478 9.60012 11.9999 9.60012C13.2521 9.60012 14.355 8.96076 15 7.99067C15.1304 8.18672 15.282 8.37282 15.4549 8.5457C16.8607 9.95159 19.1401 9.95159 20.546 8.5457C21.9519 7.13982 21.9519 4.86042 20.546 3.45453L20.1948 3.10333C19.7447 2.65325 19.1343 2.40039 18.4978 2.40039H5.50253C4.86601 2.40039 4.25556 2.65325 3.80548 3.10333L3.45432 3.45449C2.04843 4.86038 2.04843 7.13977 3.45432 8.54566Z" fill="#A685FA"/>
<path d="M3.5999 10.8391C5.31349 11.6892 7.38462 11.5731 9.00058 10.4908C9.85789 11.0645 10.8896 11.4001 11.9999 11.4001C13.1103 11.4001 14.1421 11.0644 14.9995 10.4907C16.6153 11.573 18.6863 11.6893 20.3999 10.8394V19.8004H20.6999C21.197 19.8004 21.5999 20.2033 21.5999 20.7004C21.5999 21.1974 21.197 21.6004 20.6999 21.6004H15.2999C14.8028 21.6004 14.3999 21.1974 14.3999 20.7004V16.5004C14.3999 16.0033 13.997 15.6004 13.4999 15.6004H10.4999C10.0028 15.6004 9.5999 16.0033 9.5999 16.5004V20.7004C9.5999 21.1974 9.19696 21.6004 8.6999 21.6004H3.2999C2.80285 21.6004 2.3999 21.1974 2.3999 20.7004C2.3999 20.2033 2.80285 19.8004 3.2999 19.8004H3.5999V10.8391Z" fill="#A685FA"/>
</svg>
