<svg width="29" height="28" viewBox="0 0 29 28" fill="none" xmlns="http://www.w3.org/2000/svg">
<path d="M14.1498 3.27241C14.3731 3.17482 14.6271 3.17482 14.8504 3.27241C19.189 5.16804 23.301 7.48534 27.1345 10.1724C27.4119 10.3668 27.5521 10.704 27.4945 11.0378C27.4368 11.3717 27.1916 11.6422 26.865 11.7324C26.066 11.9529 25.2738 12.1905 24.4888 12.4436C21.3025 13.4712 18.2354 14.7642 15.3133 16.2965L15.3095 16.2985C15.177 16.368 15.0449 16.4379 14.913 16.5084C14.6553 16.6461 14.3459 16.6461 14.0883 16.5084C13.9551 16.4373 13.8217 16.3666 13.6879 16.2965C12.243 15.5388 10.7627 14.8396 9.25 14.2022V13.9412C9.25 13.7879 9.32866 13.652 9.45035 13.5782C11.2063 12.5144 13.0176 11.5328 14.8789 10.6388C15.3145 10.4296 15.498 9.90685 15.2887 9.47124C15.0795 9.03564 14.5568 8.85213 14.1212 9.06136C12.2087 9.97997 10.3477 10.9885 8.54358 12.0815C8.01463 12.4019 7.65904 12.9264 7.54208 13.514C6.54467 13.1303 5.53415 12.7729 4.51134 12.4431C3.72638 12.1899 2.93418 11.9529 2.13513 11.7323C1.80856 11.6422 1.56337 11.3716 1.50571 11.0378C1.44806 10.704 1.58829 10.3668 1.86572 10.1724C5.6992 7.48533 9.81114 5.16803 14.1498 3.27241Z" fill="#A685FA"/>
<path d="M15.7377 18.0519C18.583 16.5316 21.5724 15.2464 24.6801 14.2219C24.8367 15.8725 24.9367 17.5396 24.9781 19.221C24.987 19.5817 24.7735 19.9109 24.4405 20.05C21.1142 21.4387 17.9503 23.1393 14.9853 25.1152C14.6914 25.311 14.3086 25.311 14.0148 25.1152C11.0498 23.1393 7.88585 21.4387 4.55953 20.05C4.22652 19.9109 4.01302 19.5817 4.02191 19.221C4.06334 17.5394 4.16335 15.8723 4.31999 14.2216C5.39448 14.5757 6.45484 14.9611 7.5 15.3766V16.8587C6.97692 17.1613 6.625 17.7268 6.625 18.3746C6.625 18.9524 6.90509 19.4649 7.33692 19.7836C7.23249 20.2276 7.07793 20.6622 6.87323 21.0783C7.40138 21.3276 7.925 21.5849 8.44395 21.85C8.73951 21.2489 8.95381 20.6179 9.08683 19.9737C9.69857 19.701 10.125 19.0876 10.125 18.3746C10.125 17.7268 9.77308 17.1613 9.25 16.8587V16.1065C10.6166 16.7036 11.9553 17.3529 13.2636 18.0519C14.0366 18.4649 14.9647 18.4649 15.7377 18.0519Z" fill="#A685FA"/>
<path d="M5.70593 22.7056C6.19492 22.2166 6.58419 21.6658 6.87323 21.0783C7.40138 21.3276 7.925 21.5849 8.44395 21.85C8.0723 22.6058 7.57191 23.3145 6.94336 23.943C6.60166 24.2847 6.04764 24.2847 5.70593 23.943C5.36422 23.6013 5.36422 23.0473 5.70593 22.7056Z" fill="#A685FA"/>
</svg>
