<svg width="22" height="16" viewBox="0 0 22 16" fill="none" xmlns="http://www.w3.org/2000/svg">
<path opacity="0.587821" d="M16.667 4.44434C18.1398 4.44434 19.334 5.63857 19.334 7.11133C19.3339 8.58399 18.1397 9.77734 16.667 9.77734C15.1943 9.77734 14.0001 8.58399 14 7.11133C14 5.63857 15.1942 4.44434 16.667 4.44434ZM8.66699 0C10.6307 0 12.2227 1.59198 12.2227 3.55566C12.2226 5.51929 10.6306 7.11133 8.66699 7.11133C6.70335 7.11132 5.11139 5.51929 5.11133 3.55566C5.11133 1.59199 6.70332 3.14974e-06 8.66699 0Z" fill="#8280FF"/>
<path d="M8.65194 8.88867C12.9078 8.88873 16.4042 10.9275 16.6646 15.2891C16.675 15.4632 16.6639 16 15.9967 16H1.31307C1.09012 15.9998 0.64892 15.5191 0.667565 15.2881C1.0121 11.0457 4.45511 8.88867 8.65194 8.88867ZM16.3121 10.667C19.3401 10.7001 21.8126 12.2314 21.9986 15.4668C22.0061 15.5975 21.998 16 21.5162 16H18.0885C18.0885 13.9992 17.4277 12.1525 16.3121 10.667Z" fill="#8280FF"/>
</svg>
