<svg width="20" height="20" viewBox="0 0 20 20" fill="none" xmlns="http://www.w3.org/2000/svg">
<g clip-path="url(#clip0_461_5390)">
<path d="M4.16634 3.33325H7.49967C7.72069 3.33325 7.93265 3.42105 8.08893 3.57733C8.24521 3.73361 8.33301 3.94557 8.33301 4.16659V9.16659C8.33301 9.3876 8.24521 9.59956 8.08893 9.75584C7.93265 9.91212 7.72069 9.99992 7.49967 9.99992H4.16634C3.94533 9.99992 3.73337 9.91212 3.57709 9.75584C3.42081 9.59956 3.33301 9.3876 3.33301 9.16659V4.16659C3.33301 3.94557 3.42081 3.73361 3.57709 3.57733C3.73337 3.42105 3.94533 3.33325 4.16634 3.33325Z" stroke="#703BF7" stroke-width="2" stroke-linecap="round" stroke-linejoin="round"/>
<path d="M4.16634 13.333H7.49967C7.72069 13.333 7.93265 13.4208 8.08893 13.5771C8.24521 13.7334 8.33301 13.9453 8.33301 14.1663V15.833C8.33301 16.054 8.24521 16.266 8.08893 16.4223C7.93265 16.5785 7.72069 16.6663 7.49967 16.6663H4.16634C3.94533 16.6663 3.73337 16.5785 3.57709 16.4223C3.42081 16.266 3.33301 16.054 3.33301 15.833V14.1663C3.33301 13.9453 3.42081 13.7334 3.57709 13.5771C3.73337 13.4208 3.94533 13.333 4.16634 13.333Z" stroke="#703BF7" stroke-width="2" stroke-linecap="round" stroke-linejoin="round"/>
<path d="M12.5003 10H15.8337C16.0547 10 16.2666 10.0878 16.4229 10.2441C16.5792 10.4004 16.667 10.6123 16.667 10.8333V15.8333C16.667 16.0543 16.5792 16.2663 16.4229 16.4226C16.2666 16.5789 16.0547 16.6667 15.8337 16.6667H12.5003C12.2793 16.6667 12.0674 16.5789 11.9111 16.4226C11.7548 16.2663 11.667 16.0543 11.667 15.8333V10.8333C11.667 10.6123 11.7548 10.4004 11.9111 10.2441C12.0674 10.0878 12.2793 10 12.5003 10Z" stroke="#703BF7" stroke-width="2" stroke-linecap="round" stroke-linejoin="round"/>
<path d="M12.5003 3.33325H15.8337C16.0547 3.33325 16.2666 3.42105 16.4229 3.57733C16.5792 3.73361 16.667 3.94557 16.667 4.16659V5.83325C16.667 6.05427 16.5792 6.26623 16.4229 6.42251C16.2666 6.57879 16.0547 6.66659 15.8337 6.66659H12.5003C12.2793 6.66659 12.0674 6.57879 11.9111 6.42251C11.7548 6.26623 11.667 6.05427 11.667 5.83325V4.16659C11.667 3.94557 11.7548 3.73361 11.9111 3.57733C12.0674 3.42105 12.2793 3.33325 12.5003 3.33325Z" stroke="#703BF7" stroke-width="2" stroke-linecap="round" stroke-linejoin="round"/>
</g>
<defs>
<clipPath id="clip0_461_5390">
<rect width="20" height="20" fill="white"/>
</clipPath>
</defs>
</svg>
