<svg width="20" height="21" viewBox="0 0 20 21" fill="none" xmlns="http://www.w3.org/2000/svg">
<g clip-path="url(#clip0_244_11186)">
<g clip-path="url(#clip1_244_11186)">
<path d="M0.837286 3.76679C0.612648 4.03095 0.387352 4.29446 0.167984 4.55203C-0.262846 4.11725 -0.63834 3.73912 -1 3.37483C-0.083004 2.45651 0.852437 1.52041 1.77602 0.59617C2.70026 1.52239 3.63505 2.45849 4.55072 3.37614C4.19302 3.73385 3.81489 4.11132 3.40382 4.52239C3.16601 4.25691 2.91041 3.97166 2.59025 3.61527V7.40513C4.31555 5.6772 6.08234 3.90908 7.8386 2.15019C7.37549 2.15019 6.85112 2.11791 6.33333 2.16007C5.88472 2.1963 5.57115 2.04874 5.27866 1.71804C4.92358 1.31686 4.51976 0.958489 4.08235 0.528318C4.24769 0.515801 4.33794 0.503285 4.42885 0.503285C8.82148 0.502626 13.2141 0.50065 17.6067 0.503285C19.0086 0.503944 20.0079 1.48089 20.0099 2.87417C20.0171 7.28985 20.0125 11.7049 20.0125 16.1205C20.0125 16.1818 20.0059 16.2437 19.9209 16.3636C19.5231 15.9473 19.143 15.5118 18.72 15.1225C18.4453 14.8696 18.3347 14.6061 18.357 14.2345C18.3887 13.7147 18.365 13.1917 18.365 12.6752C16.6008 14.4414 14.8544 16.1891 13.112 17.9335H16.9091C16.554 17.6436 16.2615 17.4051 15.9743 17.1706C16.4453 16.7174 16.8287 16.3485 17.2016 15.9888C18.0837 16.8808 19.0152 17.8221 19.9401 18.7569C19.0441 19.6462 18.1047 20.579 17.1752 21.5013C16.8261 21.1456 16.4545 20.7675 16.0586 20.3643C16.2813 20.168 16.5349 19.944 16.7885 19.72C16.7727 19.6812 16.7569 19.6423 16.7404 19.6041H16.3775C12.0507 19.6041 7.72398 19.6054 3.39723 19.6034C2.21278 19.6034 1.35903 19.029 1.03294 17.9842C0.943346 17.697 0.917655 17.3808 0.916996 17.0771C0.90975 12.7714 0.912385 8.46574 0.912385 4.16007C0.912385 4.04413 0.912385 3.92753 0.912385 3.81159C0.886693 3.79643 0.861001 3.78194 0.83531 3.76679H0.837286ZM2.56258 16.6838C7.40975 11.836 12.249 6.99538 17.0935 2.15019C16.4032 2.15019 15.6937 2.14426 14.9842 2.15744C14.8933 2.15941 14.7879 2.24242 14.7154 2.31488C10.7167 6.30961 6.72003 10.307 2.72596 14.307C2.65415 14.3794 2.57115 14.4848 2.56917 14.5757C2.55599 15.2846 2.56192 15.9934 2.56192 16.6831L2.56258 16.6838ZM18.365 3.45849C13.5296 8.29248 8.69499 13.1265 3.86693 17.9532C4.52569 17.9532 5.22464 17.9592 5.92358 17.946C6.01449 17.944 6.11858 17.8577 6.19104 17.7846C10.1963 13.7833 14.1996 9.77931 18.1996 5.77338C18.2721 5.70091 18.3557 5.59551 18.357 5.5046C18.3702 4.80632 18.3643 4.10737 18.3643 3.45849H18.365ZM18.365 8.08827C15.0758 11.3748 11.7833 14.6647 8.49144 17.9532C9.15876 17.9532 9.85705 17.9592 10.556 17.946C10.6462 17.944 10.749 17.8537 10.8221 17.7806C13.2846 15.3228 15.7444 12.8623 18.2016 10.3992C18.2734 10.3267 18.3557 10.2207 18.3577 10.1291C18.3709 9.43016 18.365 8.73122 18.365 8.08761V8.08827ZM2.56258 12.0237C5.861 8.7266 9.14624 5.44202 12.4387 2.15019C11.7793 2.15019 11.1028 2.14426 10.4262 2.15678C10.334 2.15875 10.2266 2.23583 10.1548 2.30697C7.67589 4.78062 5.20026 7.25691 2.72727 9.73583C2.65547 9.80829 2.5718 9.91303 2.56983 10.0046C2.55665 10.6825 2.56258 11.3603 2.56258 12.0237Z" fill="#666666"/>
</g>
</g>
<defs>
<clipPath id="clip0_244_11186">
<rect width="20" height="20" fill="white" transform="translate(0 0.5)"/>
</clipPath>
<clipPath id="clip1_244_11186">
<rect width="21.0145" height="21" fill="white" transform="translate(-1 0.5)"/>
</clipPath>
</defs>
</svg>
