<svg width="61" height="60" viewBox="0 0 61 60" fill="none" xmlns="http://www.w3.org/2000/svg">
<rect x="1.25" y="0.5" width="59" height="59" rx="29.5" stroke="url(#paint0_linear_244_7824)"/>
<rect x="1.25" y="0.5" width="59" height="59" rx="29.5" stroke="url(#paint1_linear_244_7824)"/>
<rect x="9.25" y="8.5" width="43" height="43" rx="21.5" stroke="url(#paint2_linear_244_7824)"/>
<rect x="9.25" y="8.5" width="43" height="43" rx="21.5" stroke="url(#paint3_linear_244_7824)"/>
<path fill-rule="evenodd" clip-rule="evenodd" d="M19.9502 21.3004C19.9502 20.8033 20.3531 20.4004 20.8502 20.4004H33.4502C33.9473 20.4004 34.3502 20.8033 34.3502 21.3004C34.3502 21.7974 33.9473 22.2004 33.4502 22.2004H33.1502V38.7004C33.1502 39.1974 32.7473 39.6004 32.2502 39.6004H30.4502C29.9531 39.6004 29.5502 39.1974 29.5502 38.7004V35.7004C29.5502 35.2033 29.1473 34.8004 28.6502 34.8004H25.6502C25.1531 34.8004 24.7502 35.2033 24.7502 35.7004V38.7004C24.7502 39.1974 24.3473 39.6004 23.8502 39.6004H20.8502C20.3531 39.6004 19.9502 39.1974 19.9502 38.7004C19.9502 38.2033 20.3531 37.8004 20.8502 37.8004H21.1502V22.2004H20.8502C20.3531 22.2004 19.9502 21.7974 19.9502 21.3004ZM23.5502 24.6004C23.5502 24.269 23.8188 24.0004 24.1502 24.0004H25.3502C25.6816 24.0004 25.9502 24.269 25.9502 24.6004V25.8004C25.9502 26.1318 25.6816 26.4004 25.3502 26.4004H24.1502C23.8188 26.4004 23.5502 26.1318 23.5502 25.8004V24.6004ZM24.1502 28.8004C23.8188 28.8004 23.5502 29.069 23.5502 29.4004V30.6004C23.5502 30.9318 23.8188 31.2004 24.1502 31.2004H25.3502C25.6816 31.2004 25.9502 30.9318 25.9502 30.6004V29.4004C25.9502 29.069 25.6816 28.8004 25.3502 28.8004H24.1502ZM28.3502 24.6004C28.3502 24.269 28.6188 24.0004 28.9502 24.0004H30.1502C30.4816 24.0004 30.7502 24.269 30.7502 24.6004V25.8004C30.7502 26.1318 30.4816 26.4004 30.1502 26.4004H28.9502C28.6188 26.4004 28.3502 26.1318 28.3502 25.8004V24.6004ZM28.9502 28.8004C28.6188 28.8004 28.3502 29.069 28.3502 29.4004V30.6004C28.3502 30.9318 28.6188 31.2004 28.9502 31.2004H30.1502C30.4816 31.2004 30.7502 30.9318 30.7502 30.6004V29.4004C30.7502 29.069 30.4816 28.8004 30.1502 28.8004H28.9502Z" fill="#1FD2AF"/>
<path fill-rule="evenodd" clip-rule="evenodd" d="M35.8502 25.2004C35.3531 25.2004 34.9502 25.6033 34.9502 26.1004V38.4004C34.9502 39.0631 35.4875 39.6004 36.1502 39.6004H40.6502C41.1473 39.6004 41.5502 39.1974 41.5502 38.7004C41.5502 38.2033 41.1473 37.8004 40.6502 37.8004H40.3502V27.0004H40.6502C41.1473 27.0004 41.5502 26.5974 41.5502 26.1004C41.5502 25.6033 41.1473 25.2004 40.6502 25.2004H35.8502ZM36.4502 29.4004C36.4502 29.069 36.7188 28.8004 37.0502 28.8004H38.2502C38.5816 28.8004 38.8502 29.069 38.8502 29.4004V30.6004C38.8502 30.9318 38.5816 31.2004 38.2502 31.2004H37.0502C36.7188 31.2004 36.4502 30.9318 36.4502 30.6004V29.4004ZM37.0502 33.6004C36.7188 33.6004 36.4502 33.869 36.4502 34.2004V35.4004C36.4502 35.7318 36.7188 36.0004 37.0502 36.0004H38.2502C38.5816 36.0004 38.8502 35.7318 38.8502 35.4004V34.2004C38.8502 33.869 38.5816 33.6004 38.2502 33.6004H37.0502Z" fill="#1FD2AF"/>
<defs>
<linearGradient id="paint0_linear_244_7824" x1="5.68903" y1="63.2927" x2="63.4939" y2="-4.02439" gradientUnits="userSpaceOnUse">
<stop stop-color="#1FD2AF"/>
<stop offset="0.323723" stop-color="#1FD2AF" stop-opacity="0"/>
</linearGradient>
<linearGradient id="paint1_linear_244_7824" x1="60.5671" y1="-7.68292" x2="5.68902" y2="60" gradientUnits="userSpaceOnUse">
<stop stop-color="#1FD2AF"/>
<stop offset="0.576615" stop-color="#1FD2AF" stop-opacity="0"/>
</linearGradient>
<linearGradient id="paint2_linear_244_7824" x1="3.95968" y1="10.4839" x2="52.5726" y2="52" gradientUnits="userSpaceOnUse">
<stop stop-color="#1FD2AF"/>
<stop offset="0.323723" stop-color="#1FD2AF" stop-opacity="0"/>
</linearGradient>
<linearGradient id="paint3_linear_244_7824" x1="61.4435" y1="61.9355" x2="10.3468" y2="25.7419" gradientUnits="userSpaceOnUse">
<stop stop-color="#1FD2AF"/>
<stop offset="0.576615" stop-color="#1FD2AF" stop-opacity="0"/>
</linearGradient>
</defs>
</svg>
