<svg width="18" height="18" viewBox="0 0 18 18" fill="none" xmlns="http://www.w3.org/2000/svg">
<path d="M9.00098 14C9.28431 14 9.52198 13.904 9.71398 13.712C9.90598 13.52 10.0016 13.2827 10.001 13C10.0003 12.7173 9.90431 12.48 9.71298 12.288C9.52164 12.096 9.28431 12 9.00098 12C8.71764 12 8.48031 12.096 8.28898 12.288C8.09764 12.48 8.00164 12.7173 8.00098 13C8.00031 13.2827 8.09631 13.5203 8.28898 13.713C8.48164 13.9057 8.71898 14.0013 9.00098 14ZM9.00098 10C9.28431 10 9.52198 9.904 9.71398 9.712C9.90598 9.52 10.0016 9.28267 10.001 9V5C10.001 4.71667 9.90498 4.47933 9.71298 4.288C9.52098 4.09667 9.28364 4.00067 9.00098 4C8.71831 3.99933 8.48098 4.09533 8.28898 4.288C8.09698 4.48067 8.00098 4.718 8.00098 5V9C8.00098 9.28333 8.09698 9.521 8.28898 9.713C8.48098 9.905 8.71831 10.0007 9.00098 10ZM6.07598 18C5.80931 18 5.55531 17.95 5.31398 17.85C5.07264 17.75 4.85998 17.6083 4.67598 17.425L0.575977 13.325C0.392643 13.1417 0.250977 12.929 0.150977 12.687C0.0509767 12.445 0.000976562 12.1913 0.000976562 11.926V6.076C0.000976562 5.80933 0.0509767 5.55533 0.150977 5.314C0.250977 5.07267 0.392643 4.86 0.575977 4.676L4.67598 0.576C4.85931 0.392667 5.07198 0.251 5.31398 0.151C5.55598 0.051 5.80998 0.000666667 6.07598 0H11.926C12.1926 0 12.447 0.0500001 12.689 0.15C12.931 0.25 13.1433 0.391667 13.326 0.575L17.426 4.675C17.6093 4.85833 17.751 5.071 17.851 5.313C17.951 5.555 18.001 5.809 18.001 6.075V11.925C18.001 12.1917 17.951 12.446 17.851 12.688C17.751 12.93 17.6093 13.1423 17.426 13.325L13.326 17.425C13.1426 17.6083 12.93 17.75 12.688 17.85C12.446 17.95 12.192 18 11.926 18H6.07598Z" fill="#4AD991"/>
</svg>